<?xml version="1.0" standalone="no"?>
<!DOCTYPE svg PUBLIC "-//W3C//DTD SVG 20010904//EN"
 "http://www.w3.org/TR/2001/REC-SVG-20010904/DTD/svg10.dtd">
<svg version="1.0" xmlns="http://www.w3.org/2000/svg"
 width="44.000000pt" height="49.000000pt" viewBox="0 0 44.000000 49.000000"
 preserveAspectRatio="xMidYMid meet">

<g transform="translate(0.000000,49.000000) scale(0.100000,-0.100000)"
fill="#000000" stroke="none">
<path d="M0 245 l0 -245 220 0 220 0 0 245 0 245 -220 0 -220 0 0 -245z m230
150 c0 -16 -64 -22 -74 -6 -9 14 5 21 41 21 23 0 33 -5 33 -15z m-95 -5 c-3
-5 -17 -10 -31 -10 l-24 0 0 -135 0 -135 110 0 110 0 0 39 c0 22 5 43 11 46 7
5 9 -11 7 -47 l-3 -53 -120 0 -120 0 -3 153 -3 152 36 0 c22 0 34 -4 30 -10z
m183 -52 c2 -36 -1 -58 -8 -58 -5 0 -10 22 -10 50 0 43 -3 50 -19 50 -11 0
-23 5 -26 11 -5 7 5 9 26 7 34 -3 34 -3 37 -60z m-153 -22 c-1 -13 -10 -22
-22 -24 -16 -2 -20 2 -20 20 0 18 5 24 21 24 16 0 22 -6 21 -20z m83 7 c-10
-2 -28 -2 -40 0 -13 2 -5 4 17 4 22 1 32 -1 23 -4z m142 -13 c0 -5 -4 -10 -10
-10 -5 0 -10 5 -10 10 0 6 5 10 10 10 6 0 10 -4 10 -10z m-157 -7 c-7 -2 -21
-2 -30 0 -10 3 -4 5 12 5 17 0 24 -2 18 -5z m97 -68 c-29 -30 -47 -42 -54 -35
-7 7 5 25 34 55 29 30 47 42 54 35 7 -7 -5 -25 -34 -55z m-165 10 c0 -13 -8
-21 -22 -23 -19 -3 -23 1 -23 23 0 22 4 26 23 23 14 -2 22 -10 22 -23z m83 8
c-10 -2 -26 -2 -35 0 -10 3 -2 5 17 5 19 0 27 -2 18 -5z m-15 -20 c-7 -2 -21
-2 -30 0 -10 3 -4 5 12 5 17 0 24 -2 18 -5z m-65 -55 c-2 -15 -10 -23 -23 -23
-13 0 -21 8 -23 23 -3 18 1 22 23 22 22 0 26 -4 23 -22z m91 -4 c-17 -21 -31
-17 -19 6 6 11 15 18 21 14 6 -4 6 -11 -2 -20z"/>
<path d="M138 303 c7 -3 16 -2 19 1 4 3 -2 6 -13 5 -11 0 -14 -3 -6 -6z"/>
<path d="M320 255 c-7 -8 -8 -15 -2 -15 5 0 15 7 22 15 7 8 8 15 2 15 -5 0
-15 -7 -22 -15z"/>
<path d="M130 245 c0 -8 7 -15 15 -15 8 0 15 7 15 15 0 8 -7 15 -15 15 -8 0
-15 -7 -15 -15z"/>
<path d="M130 175 c0 -8 7 -15 15 -15 8 0 15 7 15 15 0 8 -7 15 -15 15 -8 0
-15 -7 -15 -15z"/>
</g>
</svg>
